<?xml version="1.0" encoding="utf-8"?>
<svg version="1.1" xmlns:xlink="http://www.w3.org/1999/xlink" width="26px" height="22px" xmlns="http://www.w3.org/2000/svg">
  <g transform="matrix(1 0 0 1 -806 -842 )">
    <path d="M 25.22 0.970588235294118  C 24.7 0.452941176470589  24.05 0.194117647058824  23.4 0.194117647058824  L 2.6 0.194117647058824  C 1.95 0.194117647058824  1.3 0.452941176470589  0.78 1.1  C 0.26 1.61764705882353  0 2.26470588235294  0 3.04117647058824  L 0 18.8294117647059  C 0 19.6058823529412  0.26 20.3823529411765  0.78 20.9  C 1.3 21.4176470588235  1.95 21.8058823529412  2.6 21.8058823529412  L 23.4 21.8058823529412  C 24.05 21.8058823529412  24.7 21.5470588235294  25.22 20.9  C 25.74 20.3823529411765  26 19.6058823529412  26 18.8294117647059  L 26 3.04117647058824  C 26 2.26470588235294  25.74 1.48823529411765  25.22 0.970588235294118  Z M 3.38 3  L 22.75 3  L 13.13 12.1  L 3.38 3  Z M 23 18.8294117647059  L 3 18.8294117647059  L 3 6.14705882352941  L 11.44 14.3  C 11.83 14.6882352941176  12.48 14.8176470588235  13 14.8176470588235  C 13.65 14.8176470588235  14.17 14.5588235294118  14.69 14.1705882352941  L 23 6.14705882352941  L 23 18.8294117647059  Z " fill-rule="nonzero" fill="#244289" stroke="none" transform="matrix(1 0 0 1 806 842 )" />
  </g>
</svg>