<?xml version="1.0" encoding="utf-8"?>
<!-- Generator: Adobe Illustrator 23.1.0, SVG Export Plug-In . SVG Version: 6.00 Build 0)  -->
<svg version="1.1" id="Layer_1" xmlns="http://www.w3.org/2000/svg" xmlns:xlink="http://www.w3.org/1999/xlink" x="0px" y="0px"
	 viewBox="0 0 22 22" style="enable-background:new 0 0 22 22;" xml:space="preserve">
<style type="text/css">
	.st0{fill:#FFFFFF;}
</style>
<path class="st0" d="M3.2,7l7.3,4c0.1,0.1,0.3,0.1,0.5,0.1c0.2,0,0.3,0,0.5-0.1l7.4-4c0.2-0.1,0.3-0.2,0.4-0.4
	c0.1-0.2,0.1-0.3,0.1-0.5c0-0.2,0-0.4-0.1-0.5c-0.1-0.2-0.2-0.3-0.4-0.4l-7.4-4C11.3,1,11.2,1,11,1s-0.3,0-0.5,0.1l-7.3,4
	C3,5.2,2.9,5.4,2.8,5.5C2.7,5.7,2.7,5.9,2.7,6.1c0,0.2,0,0.4,0.1,0.5C2.9,6.7,3,6.9,3.2,7L3.2,7z M11,3.2l5.2,2.9L11,8.9L5.8,6.1
	L11,3.2z"/>
<path class="st0" d="M18.3,9.2c-0.3,0-0.5,0.1-0.7,0.3c-0.2,0.2-0.3,0.5-0.3,0.7v0.2L11,13.9l-6.4-3.5v-0.2c0-0.3-0.1-0.5-0.3-0.7
	C4.2,9.3,3.9,9.2,3.7,9.2S3.1,9.3,3,9.5c-0.2,0.2-0.3,0.5-0.3,0.7V11c0,0.2,0,0.4,0.1,0.5c0.1,0.2,0.2,0.3,0.4,0.4l7.4,4
	c0.1,0.1,0.3,0.1,0.5,0.1c0.2,0,0.3,0,0.5-0.1l7.4-4c0.2-0.1,0.3-0.2,0.4-0.4c0.1-0.2,0.1-0.3,0.1-0.5v-0.8c0-0.3-0.1-0.5-0.3-0.7
	C18.9,9.3,18.6,9.2,18.3,9.2z"/>
<path class="st0" d="M18.3,14.1c-0.3,0-0.5,0.1-0.7,0.3c-0.2,0.2-0.3,0.5-0.3,0.7v0.2L11,18.8l-6.4-3.5v-0.2c0-0.3-0.1-0.5-0.3-0.7
	c-0.2-0.2-0.4-0.3-0.7-0.3c-0.3,0-0.5,0.1-0.7,0.3c-0.2,0.2-0.3,0.5-0.3,0.7v0.8c0,0.2,0,0.4,0.1,0.5c0.1,0.2,0.2,0.3,0.4,0.4l7.4,4
	C10.7,21,10.8,21,11,21c0.2,0,0.3,0,0.5-0.1l7.4-4c0.2-0.1,0.3-0.2,0.4-0.4c0.1-0.2,0.1-0.3,0.1-0.5v-0.8c0-0.3-0.1-0.5-0.3-0.7
	C18.9,14.2,18.6,14.1,18.3,14.1z"/>
</svg>
