<?xml version="1.0" encoding="utf-8"?>
<!-- Generator: Adobe Illustrator 23.1.0, SVG Export Plug-In . SVG Version: 6.00 Build 0)  -->
<svg version="1.1" id="Layer_1" xmlns="http://www.w3.org/2000/svg" xmlns:xlink="http://www.w3.org/1999/xlink" x="0px" y="0px"
	 viewBox="0 0 22 22" style="enable-background:new 0 0 22 22;" xml:space="preserve">
<style type="text/css">
	.st0{fill:#FFFFFF;}
</style>
<g>
	<path class="st0" d="M19.2,13.2c1.1,0,2-0.9,2-2s-0.9-2-2-2s-2,0.9-2,2S18.1,13.2,19.2,13.2z"/>
	<path class="st0" d="M11.2,13.2c1.1,0,2-0.9,2-2s-0.9-2-2-2s-2,0.9-2,2S10.1,13.2,11.2,13.2z"/>
	<path class="st0" d="M3.2,13.2c1.1,0,2-0.9,2-2s-0.9-2-2-2s-2,0.9-2,2S2.1,13.2,3.2,13.2z"/>
</g>
</svg>
