<?xml version="1.0" encoding="utf-8"?>
<!-- Generator: Adobe Illustrator 23.1.0, SVG Export Plug-In . SVG Version: 6.00 Build 0)  -->
<svg version="1.1" id="Layer_1" xmlns="http://www.w3.org/2000/svg" xmlns:xlink="http://www.w3.org/1999/xlink" x="0px" y="0px"
	 viewBox="0 0 22 22" style="enable-background:new 0 0 22 22;" xml:space="preserve">
<style type="text/css">
	.st0{fill:#FFFFFF;}
</style>
<path class="st0" d="M20.8,9.2c-0.1-0.1-0.2-0.3-0.4-0.3c-0.1-0.1-0.3-0.1-0.5-0.1h-1v-1c0-0.5-0.2-1.1-0.6-1.4
	C18,5.9,17.5,5.7,17,5.7h-4.6L10,2.4C9.8,2.2,9.6,2,9.3,1.8C9.1,1.7,8.7,1.6,8.4,1.6H3c-0.5,0-1,0.2-1.4,0.6C1.2,2.6,1,3.1,1,3.7
	v14.3c0,0.5,0.2,1.1,0.6,1.4C2,19.7,2.5,20,3,20h13c0.2,0,0.4-0.1,0.5-0.2c0.2-0.1,0.3-0.3,0.4-0.4l4-9.2C21,10,21,9.9,21,9.7
	C21,9.5,20.9,9.4,20.8,9.2z M8.4,3.7l2.7,3.7c0.1,0.1,0.2,0.2,0.4,0.3c0.1,0.1,0.3,0.1,0.4,0.1H17v1H6c-0.2,0-0.4,0.1-0.5,0.2
	C5.3,9,5.2,9.2,5.1,9.4L3,14.1V3.7H8.4z M15.4,17.9H3.5l3.1-7.1h11.8L15.4,17.9z"/>
</svg>
