<?xml version="1.0" encoding="utf-8"?>
<!-- Generator: Adobe Illustrator 23.1.0, SVG Export Plug-In . SVG Version: 6.00 Build 0)  -->
<svg version="1.1" id="Layer_1" xmlns="http://www.w3.org/2000/svg" xmlns:xlink="http://www.w3.org/1999/xlink" x="0px" y="0px"
	 viewBox="0 0 22 22" style="enable-background:new 0 0 22 22;" xml:space="preserve">
<style type="text/css">
	.st0{fill:#FFFFFF;}
</style>
<path class="st0" d="M11,18.5c-6.5,0-10-5.6-10-7.5c0-1.8,4.6-7.5,10-7.5S21,9.2,21,11C21,12.9,17.5,18.5,11,18.5z M3,11
	c0.7,1.6,1.8,3,3.3,3.9c1.4,0.9,3.1,1.4,4.7,1.4c1.7,0,3.3-0.5,4.7-1.4s2.5-2.3,3.3-3.9c-0.4-1-3.7-5.4-8-5.4S3.4,10,3,11z"/>
</svg>
