<?xml version="1.0" encoding="utf-8"?>
<svg version="1.1" xmlns:xlink="http://www.w3.org/1999/xlink" width="20px" height="20px" xmlns="http://www.w3.org/2000/svg">
  <g transform="matrix(1 0 0 1 -42 -212 )">
    <path d="M 20 8.95  C 20 8.85000000000001  19.9 8.65000000000002  19.8 8.55000000000001  C 19.7 8.45000000000002  19.6 8.25000000000001  19.4 8.25000000000001  C 19.3 8.15000000000002  19.1 8.15000000000002  18.9 8.15000000000002  L 17.9 8.15000000000002  L 17.9 7.15000000000002  C 17.9 6.65000000000002  17.7 6.05000000000003  17.3 5.75000000000001  C 17 5.25000000000001  16.5 4.95000000000002  16 4.95000000000002  L 11.4 4.95000000000002  L 9 1.75000000000001  C 8.8 1.45000000000002  8.6 1.25000000000001  8.3 1.15000000000002  C 8 1.05000000000003  7.7 0.950000000000017  7.4 0.950000000000017  L 2 0.950000000000017  C 1.5 0.950000000000017  1 1.15000000000002  0.6 1.55000000000001  C 0.2 1.95000000000002  0 2.45000000000002  0 2.95000000000002  L 0 17.25  C 0 17.75  0.2 18.35  0.6 18.65  C 1 19.05  1.5 19.25  2 19  L 15 19  C 15.2 19.25  15.4 19.15  15.5 19.05  C 15.7 18.95  15.8 18.75  15.9 18.65  L 19.9 9.45  C 20 9.25  20 9.15000000000001  20 8.95  Z M 2 2.95000000000002  L 7.4 2.95000000000002  L 10.1 6.65000000000002  C 10.2 6.75000000000001  10.3 6.85000000000002  10.5 6.95000000000002  C 10.6 7.05000000000001  10.8 7.05000000000001  10.9 7.05000000000001  L 16 7.05000000000001  L 16 8  L 5 8  C 4.8 8.05000000000001  4.6 8.15000000000001  4.5 8.25000000000001  C 4.3 8.35000000000001  4.2 8.55000000000001  4.1 8.65000000000002  L 2 13.45  L 2 2.95000000000002  Z M 17.4 10  L 14.4 17  L 2.5 17  L 5.6 10  L 17.4 10  Z " fill-rule="nonzero" fill="#ffffff" stroke="none" transform="matrix(1 0 0 1 42 212 )" />
  </g>
</svg>