<?xml version="1.0" encoding="utf-8"?>
<!-- Generator: Adobe Illustrator 23.1.0, SVG Export Plug-In . SVG Version: 6.00 Build 0)  -->
<svg version="1.1" id="Layer_1" xmlns="http://www.w3.org/2000/svg" xmlns:xlink="http://www.w3.org/1999/xlink" x="0px" y="0px"
	 viewBox="0 0 42 42" style="enable-background:new 0 0 42 42;" xml:space="preserve">
<style type="text/css">
	.st0{fill:#EF6825;}
	.st1{fill:#F58B2D;}
	.st2{fill:#FCEDD6;}
	.st3{fill:#FFFFFF;}
</style>
<g>
	<path class="st0" d="M36,33.4c-0.8,2.2-1.7,4.1-2.9,5.4c-3.8,4.2-15,1.9-22.8-2.5c0,0-3.9-2.3-5.6-4.1C4,31.6,3.4,30.8,3,30
		c-4.7-9,12-32.4,25.5-28.8c9.9,2.6,11.3,18.1,8.1,30.2L36,33.4z"/>
	<g>
		<path class="st1" d="M34.2,36.3c-0.3,0.5-0.6,1-1,1.5c-3.6,4.6-14.7,2.3-21.7-2.2c-0.1,0.3-0.9,0.8-1.1,0.8
			c7.7,4.3,18.9,6.7,22.8,2.5c0.6-0.7,1.2-1.6,1.7-2.5C34.5,36.4,34.4,36.4,34.2,36.3z"/>
		<path class="st1" d="M36.8,28.1c0.4,0.1,0.5,0.3,0.5,0.3c2.2-11.5,0.2-24.6-8.8-27C15.3-2.2-1,20.2,2.8,29.5
			c0.2-0.4,0.5-0.8,0.9-1c0.4-0.3,0.9-0.4,1.4-0.4C1.8,15,16.7-0.4,28,2C36.9,4,38.8,16.9,36.8,28.1z"/>
	</g>
	<g>
		<path class="st2" d="M27.6,26.1c-1.1-1.4-1.2-3-1.2-3.8v0c-0.1,1.8-0.6,3.2-1.6,4.1c-0.9,0.8-1.9,1.3-3.3,1.3h5v0h4.9
			C30.3,27.8,28.7,27.5,27.6,26.1z"/>
		<path class="st3" d="M29.4,9.1v13.8c0,0.6,0.2,1.1,0.5,1.4c0.3,0.3,0.8,0.5,1.3,0.5c0.5,0,1-0.2,1.3-0.5c0.3-0.3,0.5-0.8,0.5-1.4
			V9.1H29.4z"/>
		<polygon class="st3" points="8.4,24.8 7.6,27.8 13.5,27.8 12.8,24.8 		"/>
		<polygon class="st3" points="10.6,13.9 8.8,22.4 12.3,22.4 		"/>
		<path class="st2" d="M21.5,9.1c1.5,0,2.5,0.4,3.4,1.3c1,0.9,1.5,2.3,1.6,4.1V9.1H21.5z"/>
		<path class="st2" d="M23.4,14.5c0-0.7-0.1-1.3-0.5-1.8c-0.3-0.4-0.7-0.7-1.5-0.7c-0.7,0-1.2,0.3-1.5,0.8c-0.6,1-0.7,3-0.7,6.6
			c0,3.6,0.1,3.8,0.7,4.8c0.3,0.4,0.7,0.8,1.5,0.8c0.7,0,1.2-0.3,1.5-0.7c0.3-0.5,0.4-1,0.5-1.7h3.1v-7.9H23.4z"/>
		<path class="st3" d="M19.2,9.1h-2.9h-3.4l4.6,18.6H21c0,0,0,0,0,0h0.4c-0.7,0-1.4-0.1-1.9-0.4c-0.6-0.2-1.3-0.7-1.8-1.4
			c-1.2-1.3-1.3-2.3-1.4-3.6c-0.1-3.2-0.1-4.4,0-6.8c0,0,0-3,1.1-4.4c0.5-0.8,1.1-1.2,1.8-1.6v0c0.3-0.1,0.6-0.3,1-0.4c0,0,0,0,0,0
			c0.1,0,0.1,0,0.2,0c0,0,0.1,0,0.1,0c0,0,0.1,0,0.1,0c0.1,0,0.1,0,0.2,0c0,0,0,0,0,0c0.1,0,0.2,0,0.3,0c0.1,0,0.2,0,0.2,0h-0.1
			H19.2z"/>
	</g>
	<g>
		<g>
			<path class="st3" d="M4,36c-0.3,0-0.7-0.1-0.9-0.4c-0.3-0.3-0.4-0.6-0.4-0.9v-4.9c0-0.2,0-0.3,0.1-0.5C2.9,29.1,3,29,3.1,28.9
				c0.1-0.1,0.2-0.2,0.4-0.3c0.2-0.1,0.3-0.1,0.5-0.1c0.2,0,0.3,0,0.5,0.1c0.2,0.1,0.3,0.2,0.4,0.3C5,29,5.1,29.1,5.2,29.3
				c0.1,0.2,0.1,0.3,0.1,0.5v3.6h3.6c0.2,0,0.3,0,0.5,0.1c0.2,0.1,0.3,0.2,0.4,0.3c0.1,0.1,0.2,0.3,0.3,0.4c0.1,0.2,0.1,0.3,0.1,0.5
				c0,0.2,0,0.4-0.1,0.5c-0.1,0.2-0.2,0.3-0.3,0.4c-0.1,0.1-0.3,0.2-0.4,0.3C9.2,35.9,9.1,36,8.9,36H4z"/>
			<path class="st0" d="M4,28.7c0.1,0,0.3,0,0.4,0.1C4.5,28.9,4.6,29,4.7,29c0.1,0.1,0.2,0.2,0.2,0.3C5,29.5,5,29.6,5,29.8v3.9h3.9
				c0.1,0,0.3,0,0.4,0.1c0.1,0.1,0.2,0.1,0.3,0.2c0.1,0.1,0.2,0.2,0.2,0.3c0.1,0.1,0.1,0.3,0.1,0.4c0,0.1,0,0.3-0.1,0.4
				c-0.1,0.1-0.1,0.2-0.2,0.3s-0.2,0.2-0.3,0.2c-0.1,0.1-0.3,0.1-0.4,0.1H4c-0.3,0-0.5-0.1-0.7-0.3C3.1,35.2,3,35,3,34.7v-4.9
				c0-0.1,0-0.3,0.1-0.4c0.1-0.1,0.1-0.2,0.2-0.3c0.1-0.1,0.2-0.2,0.3-0.2C3.7,28.8,3.9,28.7,4,28.7 M4,28.2c-0.2,0-0.4,0-0.6,0.1
				c-0.2,0.1-0.4,0.2-0.5,0.3c-0.1,0.1-0.2,0.3-0.3,0.5c-0.1,0.2-0.1,0.4-0.1,0.6v4.9c0,0.4,0.2,0.8,0.5,1.1
				c0.3,0.3,0.7,0.5,1.1,0.5h4.9c0.2,0,0.4,0,0.6-0.1c0.2-0.1,0.4-0.2,0.5-0.3c0.1-0.1,0.3-0.3,0.3-0.5c0.1-0.2,0.1-0.4,0.1-0.6
				c0-0.2,0-0.4-0.1-0.6c-0.1-0.2-0.2-0.4-0.3-0.5c-0.1-0.1-0.3-0.3-0.5-0.3c-0.2-0.1-0.4-0.1-0.6-0.1H5.6v-3.3c0-0.2,0-0.4-0.1-0.6
				c-0.1-0.2-0.2-0.4-0.3-0.5c-0.1-0.1-0.3-0.3-0.5-0.3C4.4,28.2,4.2,28.2,4,28.2L4,28.2z"/>
		</g>
		<g>
			<path class="st3" d="M15.5,36c-1,0-1.9-0.4-2.6-1.1c-0.7-0.7-1.1-1.6-1.1-2.7c0-1,0.4-1.9,1.1-2.6c0.7-0.7,1.6-1.1,2.6-1.1
				c1,0,1.9,0.4,2.6,1.1c0.7,0.7,1.1,1.6,1.1,2.6c0,1-0.4,1.9-1.1,2.7C17.4,35.6,16.5,36,15.5,36z M15.5,31.1
				c-0.3,0-0.6,0.1-0.8,0.3c-0.2,0.2-0.3,0.5-0.3,0.8c0,0.3,0.1,0.6,0.3,0.8c0.2,0.2,0.5,0.3,0.8,0.3c0.3,0,0.6-0.1,0.8-0.3
				c0.2-0.2,0.3-0.5,0.3-0.8c0-0.3-0.1-0.6-0.3-0.8C16,31.2,15.8,31.1,15.5,31.1z"/>
			<path class="st0" d="M15.5,28.7c1,0,1.8,0.3,2.5,1c0.7,0.7,1,1.5,1,2.5c0,1-0.3,1.8-1,2.5c-0.7,0.7-1.5,1-2.5,1s-1.8-0.3-2.5-1
				c-0.7-0.7-1-1.5-1-2.5c0-1,0.3-1.8,1-2.5C13.7,29.1,14.5,28.7,15.5,28.7 M15.5,33.7c0.4,0,0.7-0.1,1-0.4c0.3-0.3,0.4-0.6,0.4-1
				c0-0.4-0.1-0.7-0.4-1c-0.3-0.3-0.6-0.4-1-0.4c-0.4,0-0.7,0.1-1,0.4c-0.3,0.3-0.4,0.6-0.4,1c0,0.4,0.1,0.7,0.4,1
				C14.7,33.5,15.1,33.7,15.5,33.7 M15.5,28.2c-1.1,0-2.1,0.4-2.8,1.2c-0.8,0.8-1.2,1.7-1.2,2.8c0,1.1,0.4,2.1,1.2,2.8
				c0.8,0.8,1.7,1.2,2.8,1.2c1.1,0,2.1-0.4,2.8-1.2c0.8-0.8,1.2-1.7,1.2-2.8c0-1.1-0.4-2.1-1.2-2.8C17.5,28.6,16.6,28.2,15.5,28.2
				L15.5,28.2z M15.5,33.1c-0.2,0-0.5-0.1-0.6-0.3c-0.2-0.2-0.2-0.4-0.2-0.6c0-0.2,0.1-0.4,0.3-0.6c0.2-0.2,0.4-0.3,0.6-0.3
				c0.2,0,0.5,0.1,0.6,0.3c0.2,0.2,0.3,0.4,0.3,0.6c0,0.3-0.1,0.5-0.3,0.6C15.9,33,15.7,33.1,15.5,33.1L15.5,33.1z"/>
		</g>
		<g>
			<path class="st3" d="M27.6,36c-0.3,0-0.7-0.1-0.9-0.4c-0.3-0.3-0.4-0.6-0.4-0.9v-1.9c-0.1,0.1-0.1,0.2-0.2,0.3
				c-0.1,0.1-0.3,0.2-0.4,0.3c-0.2,0.1-0.3,0.1-0.5,0.1c-0.3,0-0.7-0.1-0.9-0.4c-0.1-0.1-0.2-0.2-0.2-0.3v1.9c0,0.2,0,0.4-0.1,0.5
				c-0.1,0.2-0.2,0.3-0.3,0.4c-0.1,0.1-0.3,0.2-0.4,0.3c-0.2,0.1-0.3,0.1-0.5,0.1c-0.3,0-0.7-0.1-0.9-0.4c-0.3-0.3-0.4-0.6-0.4-0.9
				v-2.5c0-1,0.4-1.9,1.1-2.6c0.7-0.7,1.6-1.1,2.6-1.1c1,0,1.9,0.4,2.6,1.1c0.7,0.7,1.1,1.6,1.1,2.6v2.5c0,0.2,0,0.4-0.1,0.5
				c-0.1,0.2-0.2,0.3-0.3,0.4c-0.1,0.1-0.3,0.2-0.4,0.3C28,35.9,27.8,36,27.6,36z"/>
			<path class="st0" d="M25.2,28.7c1,0,1.8,0.3,2.5,1c0.7,0.7,1,1.5,1,2.5v2.5c0,0.1,0,0.3-0.1,0.4c-0.1,0.1-0.1,0.2-0.2,0.3
				s-0.2,0.2-0.3,0.2c-0.1,0.1-0.3,0.1-0.4,0.1c-0.3,0-0.5-0.1-0.7-0.3c-0.2-0.2-0.3-0.4-0.3-0.7v-2.5c0-0.4-0.1-0.7-0.4-1
				c-0.3-0.3-0.6-0.4-1-0.4c-0.4,0-0.7,0.1-1,0.4c-0.3,0.3-0.4,0.6-0.4,1v2.5c0,0.1,0,0.3-0.1,0.4c-0.1,0.1-0.1,0.2-0.2,0.3
				s-0.2,0.2-0.3,0.2c-0.1,0.1-0.3,0.1-0.4,0.1c-0.3,0-0.5-0.1-0.7-0.3c-0.2-0.2-0.3-0.4-0.3-0.7v-2.5c0-1,0.3-1.8,1-2.5
				C23.4,29.1,24.2,28.7,25.2,28.7 M25.2,31.2c0.1,0,0.3,0,0.4,0.1c0.1,0.1,0.2,0.1,0.3,0.2c0.1,0.1,0.2,0.2,0.2,0.3
				c0.1,0.1,0.1,0.3,0.1,0.4c0,0.1,0,0.3-0.1,0.4c-0.1,0.1-0.1,0.2-0.2,0.3c-0.1,0.1-0.2,0.2-0.3,0.2c-0.1,0.1-0.3,0.1-0.4,0.1
				c-0.3,0-0.5-0.1-0.7-0.3c-0.2-0.2-0.3-0.4-0.3-0.7c0-0.1,0-0.3,0.1-0.4c0.1-0.1,0.1-0.2,0.2-0.3c0.1-0.1,0.2-0.2,0.3-0.2
				C24.9,31.2,25,31.2,25.2,31.2 M25.2,28.2c-1.1,0-2.1,0.4-2.8,1.2c-0.8,0.8-1.2,1.7-1.2,2.8v2.5c0,0.4,0.2,0.8,0.5,1.1
				c0.3,0.3,0.7,0.5,1.1,0.5c0.2,0,0.4,0,0.6-0.1c0.2-0.1,0.4-0.2,0.5-0.3c0.1-0.1,0.3-0.3,0.3-0.5c0.1-0.2,0.1-0.4,0.1-0.6v-1.2
				c0.3,0.2,0.6,0.3,0.9,0.3c0.2,0,0.4,0,0.6-0.1c0.1,0,0.2-0.1,0.3-0.2v1.2c0,0.4,0.2,0.8,0.5,1.1c0.3,0.3,0.7,0.5,1.1,0.5
				c0.2,0,0.4,0,0.6-0.1c0.2-0.1,0.4-0.2,0.5-0.3c0.1-0.1,0.3-0.3,0.3-0.5c0.1-0.2,0.1-0.4,0.1-0.6v-2.5c0-1.1-0.4-2.1-1.2-2.8
				C27.2,28.6,26.3,28.2,25.2,28.2L25.2,28.2z"/>
		</g>
		<g>
			<path class="st3" d="M32.3,36c-0.3,0-0.7-0.1-0.9-0.4C31.1,35.3,31,35,31,34.7v-2.5c0-0.2,0-0.3,0.1-0.5c0.1-0.2,0.2-0.3,0.3-0.4
				c0.1-0.1,0.3-0.2,0.4-0.3c0,0,0.1,0,0.1,0c-0.2-0.1-0.3-0.2-0.5-0.3c-0.3-0.3-0.4-0.6-0.4-0.9c0-0.2,0-0.3,0.1-0.5
				c0.1-0.2,0.2-0.3,0.3-0.4c0.1-0.1,0.3-0.2,0.4-0.3c0.2-0.1,0.3-0.1,0.5-0.1h2.5c1,0,1.9,0.4,2.6,1.1c0.7,0.7,1.1,1.6,1.1,2.6
				c0,1-0.4,1.9-1.1,2.7c-0.7,0.7-1.6,1.1-2.6,1.1H32.3z M34.7,33.4c0.3,0,0.6-0.1,0.8-0.3c0.2-0.2,0.3-0.5,0.3-0.8
				c0-0.3-0.1-0.6-0.3-0.8c-0.2-0.2-0.5-0.3-0.8-0.3h-1.9c0.1,0.1,0.2,0.1,0.3,0.2c0.1,0.1,0.2,0.3,0.3,0.4s0.1,0.3,0.1,0.5v1.2
				H34.7z"/>
			<path class="st0" d="M34.7,28.7c1,0,1.8,0.3,2.5,1c0.7,0.7,1,1.5,1,2.5c0,1-0.3,1.8-1,2.5c-0.7,0.7-1.5,1-2.5,1h-2.5
				c-0.3,0-0.5-0.1-0.7-0.3c-0.2-0.2-0.3-0.4-0.3-0.7v-2.5c0-0.1,0-0.3,0.1-0.4c0.1-0.1,0.1-0.2,0.2-0.3c0.1-0.1,0.2-0.2,0.3-0.2
				c0.1-0.1,0.3-0.1,0.4-0.1c0.1,0,0.3,0,0.4,0.1c0.1,0.1,0.2,0.1,0.3,0.2c0.1,0.1,0.2,0.2,0.2,0.3c0.1,0.1,0.1,0.3,0.1,0.4v1.4h1.4
				c0.4,0,0.7-0.1,1-0.4c0.3-0.3,0.4-0.6,0.4-1c0-0.4-0.1-0.7-0.4-1c-0.3-0.3-0.6-0.4-1-0.4h-2.5c-0.3,0-0.5-0.1-0.7-0.3
				c-0.2-0.2-0.3-0.4-0.3-0.7c0-0.1,0-0.3,0.1-0.4c0.1-0.1,0.1-0.2,0.2-0.3c0.1-0.1,0.2-0.2,0.3-0.2c0.1-0.1,0.3-0.1,0.4-0.1H34.7
				 M34.7,28.2h-2.5c-0.2,0-0.4,0-0.6,0.1c-0.2,0.1-0.4,0.2-0.5,0.3c-0.1,0.1-0.2,0.3-0.3,0.5c-0.1,0.2-0.1,0.4-0.1,0.6
				c0,0.4,0.2,0.8,0.5,1.1c0,0,0.1,0.1,0.1,0.1c0,0-0.1,0.1-0.1,0.1c-0.1,0.1-0.2,0.3-0.3,0.5c-0.1,0.2-0.1,0.4-0.1,0.6v2.5
				c0,0.4,0.2,0.8,0.5,1.1c0.3,0.3,0.7,0.5,1.1,0.5h2.5c1.1,0,2.1-0.4,2.8-1.2c0.8-0.8,1.2-1.7,1.2-2.8c0-1.1-0.4-2.1-1.2-2.8
				C36.8,28.6,35.8,28.2,34.7,28.2L34.7,28.2z M33.6,31.3h1.2c0.2,0,0.5,0.1,0.6,0.3c0.2,0.2,0.3,0.4,0.3,0.6c0,0.3-0.1,0.5-0.3,0.6
				c-0.2,0.2-0.4,0.3-0.6,0.3h-0.9v-0.9c0-0.2,0-0.4-0.1-0.6C33.7,31.5,33.6,31.4,33.6,31.3L33.6,31.3z"/>
		</g>
	</g>
</g>
</svg>
