<?xml version="1.0" encoding="utf-8"?>
<!-- Generator: Adobe Illustrator 23.1.0, SVG Export Plug-In . SVG Version: 6.00 Build 0)  -->
<svg version="1.1" id="Layer_1" xmlns="http://www.w3.org/2000/svg" xmlns:xlink="http://www.w3.org/1999/xlink" x="0px" y="0px"
	 viewBox="0 0 22 22" style="enable-background:new 0 0 22 22;" xml:space="preserve">
<style type="text/css">
	.st0{fill:#FFFFFF;}
</style>
<path class="st0" d="M20.1,19.6l-8.1-18c-0.1-0.2-0.2-0.3-0.4-0.4C11.4,1.1,11.2,1,11,1s-0.4,0.1-0.6,0.2c-0.2,0.1-0.3,0.3-0.4,0.4
	l-8.1,18c-0.1,0.2-0.1,0.4-0.1,0.5c0,0.2,0.1,0.4,0.2,0.5c0.1,0.1,0.3,0.2,0.5,0.3C2.7,21,2.9,21,3.1,21L11,19l7.9,1.9
	c0.2,0,0.4,0,0.6,0c0.2-0.1,0.3-0.2,0.5-0.3s0.2-0.3,0.2-0.5C20.2,20,20.1,19.8,20.1,19.6z M12,17.2V10c0-0.3-0.1-0.5-0.3-0.7
	C11.5,9.1,11.3,9,11,9s-0.5,0.1-0.7,0.3C10.1,9.5,10,9.7,10,10v7.2l-5.4,1.3L11,4.5l6.4,14.1L12,17.2z"/>
</svg>
