<?xml version="1.0" encoding="utf-8"?>
<!-- Generator: Adobe Illustrator 23.1.0, SVG Export Plug-In . SVG Version: 6.00 Build 0)  -->
<svg version="1.1" id="Layer_1" xmlns="http://www.w3.org/2000/svg" xmlns:xlink="http://www.w3.org/1999/xlink" x="0px" y="0px"
	 viewBox="0 0 22 22" style="enable-background:new 0 0 22 22;" xml:space="preserve">
<style type="text/css">
	.st0{fill:#FFFFFF;}
</style>
<path class="st0" d="M11,13c1.1,0,2-0.9,2-2c0-1.1-0.9-2-2-2s-2,0.9-2,2C9,12.1,9.9,13,11,13z"/>
<path class="st0" d="M18.9,11c2.4-3.8,2.8-7.2,1.1-8.9c-1.8-1.8-5.2-1.3-8.9,1.1C7.3,0.8,3.9,0.3,2.1,2.1C0.3,3.9,0.8,7.3,3.1,11
	c-0.9,1.5-1.6,2.9-1.9,4.2c-0.6,2.6,0.1,4,0.8,4.7C2.8,20.6,3.8,21,5,21c1.7,0,3.8-0.7,6-2.1c2.2,1.4,4.3,2.1,6,2.1
	c1.2,0,2.2-0.3,2.9-1.1C21.7,18.2,21.2,14.8,18.9,11z M3.5,18.5c-0.7-0.7-0.5-2-0.3-2.8c0.2-0.9,0.6-1.9,1.2-2.9
	c0.7,0.9,1.4,1.7,2.3,2.6c0.2,0.2,0.5,0.3,0.7,0.3s0.5-0.1,0.7-0.3c0.4-0.4,0.4-1,0-1.4C6,11.8,4.4,9.5,3.5,7.4
	c-0.7-1.8-0.7-3.3,0-3.9c0.9-0.9,3.1-0.5,5.7,0.9C8.3,5.1,7.5,5.8,6.6,6.6c-0.4,0.4-0.4,1,0,1.4c0.4,0.4,1,0.4,1.4,0
	c1-1,2-1.8,2.9-2.5c1,0.7,2,1.5,2.9,2.5c0.4,0.4,1,0.4,1.4,0c0.4-0.4,0.4-1,0-1.4c-0.8-0.8-1.7-1.6-2.6-2.2c2.6-1.4,4.8-1.8,5.7-0.9
	c1.1,1.1,0.4,3.9-1.7,7c0,0,0,0,0,0l0,0c-0.4,0.5-0.8,1.1-1.2,1.6c-0.5,0.6-1.1,1.3-1.7,1.9c-0.5,0.5-1.1,1-1.6,1.5
	c-0.6,0.5-1.3,1-1.9,1.4C7.4,18.9,4.6,19.6,3.5,18.5z M18.5,18.5c-0.9,0.9-3.2,0.5-5.7-0.9c0.3-0.2,0.6-0.4,0.8-0.7
	c0.6-0.5,1.2-1,1.7-1.6c0.6-0.6,1.3-1.3,1.8-2c0.1-0.2,0.3-0.4,0.4-0.5C19,15.4,19.4,17.6,18.5,18.5z"/>
</svg>
