<?xml version="1.0" encoding="utf-8"?>
<!-- Generator: Adobe Illustrator 23.1.0, SVG Export Plug-In . SVG Version: 6.00 Build 0)  -->
<svg version="1.1" id="Layer_1" xmlns="http://www.w3.org/2000/svg" xmlns:xlink="http://www.w3.org/1999/xlink" x="0px" y="0px"
	 viewBox="0 0 22 22" style="enable-background:new 0 0 22 22;" xml:space="preserve">
<style type="text/css">
	.st0{fill:#FFFFFF;}
</style>
<path class="st0" d="M12,21h-2c-0.5,0-1-0.2-1.4-0.6S8,19.5,8,19v-0.1l-0.5-0.2l-0.1,0.1c-0.4,0.4-0.9,0.6-1.4,0.6s-1-0.2-1.4-0.6
	l-1.4-1.4c-0.4-0.4-0.6-0.9-0.6-1.4c0-0.5,0.2-1,0.6-1.4l0.1-0.1L3.1,14H3c-0.5,0-1-0.2-1.4-0.6S1,12.5,1,12v-2c0-0.5,0.2-1,0.6-1.4
	S2.5,8,3,8h0.1l0.2-0.5L3.2,7.5C2.9,7.1,2.6,6.6,2.6,6c0-0.5,0.2-1,0.6-1.4l1.4-1.4C5,2.8,5.5,2.6,6,2.6s1,0.2,1.4,0.6l0.1,0.1
	L8,3.1V3c0-0.5,0.2-1,0.6-1.4S9.5,1,10,1h2c0.5,0,1,0.2,1.4,0.6S14,2.5,14,3v0.1l0.5,0.2l0.1-0.1c0.4-0.4,0.9-0.6,1.4-0.6
	c0.5,0,1,0.2,1.4,0.6l1.4,1.4C19.2,5,19.4,5.5,19.4,6c0,0.5-0.2,1-0.6,1.4l-0.1,0.1L18.9,8H19c0.5,0,1,0.2,1.4,0.6S21,9.5,21,10v2
	c0,0.5-0.2,1-0.6,1.4S19.5,14,19,14h-0.1l-0.2,0.5l0.1,0.1c0.4,0.4,0.6,0.9,0.6,1.4c0,0.5-0.2,1-0.6,1.4l-1.4,1.4
	c-0.4,0.4-0.9,0.6-1.4,0.6s-1-0.2-1.4-0.6l-0.1-0.1L14,18.9V19c0,0.5-0.2,1-0.6,1.4C13,20.8,12.5,21,12,21z M7.3,16.5
	c0.1,0,0.3,0,0.4,0.1l1.7,0.7c0.2,0.1,0.3,0.2,0.4,0.4C9.9,17.8,10,18,10,18.2V19h2v-0.8c0-0.2,0.1-0.4,0.2-0.6
	c0.1-0.2,0.3-0.3,0.4-0.4l1.7-0.7c0.2-0.1,0.4-0.1,0.6-0.1s0.4,0.1,0.5,0.3l0.5,0.5l1.4-1.4l-0.5-0.5c-0.1-0.1-0.2-0.3-0.3-0.5
	c0-0.2,0-0.4,0.1-0.6l0.7-1.7c0.1-0.2,0.2-0.3,0.4-0.4c0.2-0.1,0.4-0.2,0.6-0.2H19v-2h-0.8c-0.2,0-0.4-0.1-0.6-0.2
	c-0.2-0.1-0.3-0.3-0.4-0.4l-0.7-1.7c-0.1-0.2-0.1-0.4-0.1-0.6c0-0.2,0.1-0.4,0.3-0.5L17.4,6L16,4.6l-0.5,0.5
	c-0.1,0.1-0.3,0.2-0.5,0.3c-0.2,0-0.4,0-0.6-0.1l-1.7-0.7c-0.2-0.1-0.3-0.2-0.4-0.4C12.1,4.1,12,3.9,12,3.8V3h-2v0.8
	c0,0.2-0.1,0.4-0.2,0.6C9.7,4.5,9.6,4.6,9.4,4.7L7.7,5.4C7.5,5.5,7.3,5.5,7.1,5.4c-0.2,0-0.4-0.1-0.5-0.3L6,4.6L4.6,6l0.5,0.5
	c0.1,0.1,0.2,0.3,0.3,0.5s0,0.4-0.1,0.6L4.7,9.4C4.6,9.6,4.5,9.7,4.3,9.8C4.1,9.9,4,10,3.8,10H3v2h0.8c0.2,0,0.4,0.1,0.6,0.2
	c0.2,0.1,0.3,0.3,0.4,0.4l0.7,1.7c0.1,0.2,0.1,0.4,0.1,0.6s-0.1,0.4-0.3,0.5l-0.5,0.5L6,17.4l0.5-0.5C6.8,16.6,7,16.5,7.3,16.5z"/>
<path class="st0" d="M11,15c-0.8,0-1.6-0.2-2.2-0.7c-0.7-0.4-1.2-1.1-1.5-1.8C7,11.8,6.9,11,7.1,10.2c0.2-0.8,0.5-1.5,1.1-2
	c0.6-0.6,1.3-0.9,2-1.1C11,6.9,11.8,7,12.5,7.3c0.7,0.3,1.4,0.8,1.8,1.5C14.8,9.4,15,10.2,15,11c0,1.1-0.4,2.1-1.2,2.8
	C13.1,14.6,12.1,15,11,15z M11,9c-0.4,0-0.8,0.1-1.1,0.3c-0.3,0.2-0.6,0.5-0.7,0.9C9,10.6,9,11,9,11.4c0.1,0.4,0.3,0.7,0.5,1
	c0.3,0.3,0.6,0.5,1,0.5c0.4,0.1,0.8,0,1.2-0.1c0.4-0.2,0.7-0.4,0.9-0.7c0.2-0.3,0.3-0.7,0.3-1.1c0-0.5-0.2-1-0.6-1.4S11.5,9,11,9z"
	/>
</svg>
