<?xml version="1.0" encoding="utf-8"?>
<!-- Generator: Adobe Illustrator 23.1.0, SVG Export Plug-In . SVG Version: 6.00 Build 0)  -->
<svg version="1.1" id="Layer_1" xmlns="http://www.w3.org/2000/svg" xmlns:xlink="http://www.w3.org/1999/xlink" x="0px" y="0px"
	 viewBox="0 0 22 22" style="enable-background:new 0 0 22 22;" xml:space="preserve">
<style type="text/css">
	.st0{fill:#FFFFFF;}
</style>
<path class="st0" d="M13.1,21.2c-0.2,0-0.5-0.1-0.7-0.2L8,17.8c-0.1-0.1-0.2-0.2-0.3-0.4c-0.1-0.1-0.1-0.3-0.1-0.5v-4L1.3,4.7
	C1.1,4.3,0.9,4,0.9,3.6c0-0.4,0-0.8,0.2-1.2c0.2-0.4,0.5-0.7,0.8-0.9s0.7-0.3,1.2-0.3h15.6c0.4,0,0.8,0.1,1.2,0.3s0.6,0.5,0.8,0.9
	c0.2,0.4,0.3,0.8,0.2,1.2c0,0.4-0.2,0.8-0.4,1.1l-6.2,8.3v7.2c0,0.3-0.1,0.6-0.3,0.8C13.7,21.1,13.4,21.2,13.1,21.2z M9.8,16.4
	L12,18v-5.4c0-0.2,0.1-0.5,0.2-0.6l6.5-8.5H3.1l6.5,8.5c0.1,0.2,0.2,0.4,0.2,0.6L9.8,16.4z"/>
</svg>
