<?xml version="1.0" encoding="utf-8"?>
<!-- Generator: Adobe Illustrator 23.1.0, SVG Export Plug-In . SVG Version: 6.00 Build 0)  -->
<svg version="1.1" id="Layer_1" xmlns="http://www.w3.org/2000/svg" xmlns:xlink="http://www.w3.org/1999/xlink" x="0px" y="0px"
	 viewBox="0 0 22 22" style="enable-background:new 0 0 22 22;" xml:space="preserve">
<style type="text/css">
	.st0{fill:#FFFFFF;}
</style>
<path class="st0" d="M18.4,13.7c-0.6-0.6-1-1.4-1-2.2V9.7c0-1.5-0.5-2.9-1.5-4.1c-1-1.1-2.3-1.9-3.8-2.2V2c0-0.3-0.1-0.5-0.3-0.7
	C11.5,1.1,11.3,1,11,1c-0.3,0-0.5,0.1-0.7,0.3C10.1,1.5,9.9,1.7,9.9,2v1.5C8.4,3.8,7.1,4.5,6.1,5.7S4.6,8.3,4.6,9.7v1.6
	c0,0.1,0,0.1,0,0.2h0c0,0.8-0.4,1.6-1,2.2c-0.6,0.5-0.9,1.2-1,2c0,0.5,0,2.2,1.6,2.2h2.3c0.3,0.9,0.9,1.7,1.7,2.2
	C9,20.7,10,21,11,21c1,0,1.9-0.3,2.7-0.9c0.8-0.6,1.4-1.3,1.7-2.2h2.3c1.6,0,1.6-1.6,1.6-2.2C19.3,15,18.9,14.3,18.4,13.7z M11,19
	c-0.4,0-0.8-0.1-1.2-0.3c-0.4-0.2-0.7-0.5-0.9-0.8h4.3c-0.2,0.3-0.6,0.6-0.9,0.8C11.8,18.9,11.4,19,11,19z M17.2,15.9H4.7
	c0-0.1,0-0.1,0-0.2C4.9,15.4,5,15.2,5.2,15c0.9-0.9,1.4-2.2,1.5-3.5V9.7c0-1.1,0.4-2.2,1.2-3C8.7,5.9,9.8,5.4,11,5.4
	c1.2,0.1,2.3,0.5,3.1,1.4c0.8,0.8,1.2,1.9,1.2,3v1.6c0,0.1,0,0.1,0,0.2h0c0,1.3,0.5,2.5,1.5,3.5c0.2,0.2,0.4,0.4,0.5,0.7
	C17.2,15.8,17.2,15.8,17.2,15.9z"/>
</svg>
