<?xml version="1.0" encoding="utf-8"?>
<!-- Generator: Adobe Illustrator 23.1.0, SVG Export Plug-In . SVG Version: 6.00 Build 0)  -->
<svg version="1.1" id="Layer_1" xmlns="http://www.w3.org/2000/svg" xmlns:xlink="http://www.w3.org/1999/xlink" x="0px" y="0px"
	 viewBox="0 0 22 22" style="enable-background:new 0 0 22 22;" xml:space="preserve">
<style type="text/css">
	.st0{fill:#FFFFFF;}
</style>
<g>
	<path class="st0" d="M10.6,10.5c-1,0-2-0.3-2.9-0.8C6.8,9.2,6.2,8.4,5.8,7.6C5.4,6.7,5.3,5.7,5.5,4.8c0.2-0.9,0.7-1.8,1.4-2.4
		c0.7-0.7,1.7-1.1,2.7-1.3s2.1-0.1,3,0.3c0.9,0.4,1.8,1,2.3,1.7c0.6,0.8,0.9,1.7,0.9,2.6c0,1.3-0.5,2.5-1.5,3.3
		C13.3,10,11.9,10.5,10.6,10.5z M10.6,3.1C10,3.1,9.4,3.3,9,3.5C8.5,3.8,8.1,4.2,7.9,4.7c-0.2,0.5-0.3,1-0.2,1.5
		c0.1,0.5,0.4,1,0.8,1.3C8.9,8,9.4,8.2,10,8.3c0.6,0.1,1.1,0,1.7-0.1s1-0.5,1.3-1c0.3-0.4,0.5-0.9,0.5-1.5c0-0.7-0.3-1.4-0.8-1.9
		C12.1,3.4,11.3,3.1,10.6,3.1z"/>
	<path class="st0" d="M16.9,21H4.2c-0.3,0-0.6-0.1-0.8-0.3c-0.2-0.2-0.3-0.5-0.3-0.7v-3.2c0-1.4,0.6-2.7,1.7-3.7
		c1.1-1,2.5-1.5,4.1-1.5h3.5c1.5,0,3,0.6,4.1,1.5c1.1,1,1.7,2.3,1.7,3.7v3.2c0,0.3-0.1,0.5-0.3,0.7C17.5,20.9,17.2,21,16.9,21z
		 M5.4,18.9h10.4v-2.1c0-0.8-0.4-1.6-1-2.2c-0.6-0.6-1.5-0.9-2.4-0.9H8.8c-0.9,0-1.8,0.3-2.4,0.9c-0.6,0.6-1,1.4-1,2.2V18.9z"/>
</g>
</svg>
