<?xml version="1.0" encoding="utf-8"?>
<!-- Generator: Adobe Illustrator 23.1.0, SVG Export Plug-In . SVG Version: 6.00 Build 0)  -->
<svg version="1.1" id="Layer_1" xmlns="http://www.w3.org/2000/svg" xmlns:xlink="http://www.w3.org/1999/xlink" x="0px" y="0px"
	 viewBox="0 0 22 22" style="enable-background:new 0 0 22 22;" xml:space="preserve">
<style type="text/css">
	.st0{fill:#FFFFFF;}
</style>
<g>
	<path class="st0" d="M20.7,19.3C20.5,19.1,20.3,19,20,19h-0.1L20,6.9c0-0.2,0-0.4,0.1-0.6c0.1,0,0.2,0,0.3-0.1
		c0.2-0.1,0.4-0.3,0.5-0.6c0.1-0.2,0.1-0.5,0-0.8c-0.1-0.2-0.3-0.4-0.6-0.5l-9-3.3C11.1,1,10.9,1,10.6,1l-9,3.3
		C1.4,4.4,1.2,4.6,1.1,4.9C1,5.1,1,5.4,1.1,5.6c0.1,0.2,0.3,0.5,0.5,0.6c0.1,0,0.2,0.1,0.3,0.1c0,0.2,0,0.4,0.1,0.6L2,18.1v1h0
		c-0.3,0-0.5,0.1-0.7,0.3C1.1,19.5,1,19.8,1,20s0.1,0.5,0.3,0.7C1.5,20.9,1.7,21,2,21H4h0h4c0.3,0,0.5-0.1,0.7-0.3
		c0.2-0.2,0.3-0.4,0.3-0.7v-5h3.2v5c0,0.3,0.1,0.5,0.3,0.7c0.2,0.2,0.4,0.3,0.7,0.3h4.6c0,0,0,0,0,0v0H20c0.3,0,0.5-0.1,0.7-0.3
		c0.2-0.2,0.3-0.4,0.3-0.7S20.9,19.5,20.7,19.3z M17.8,19h-3.5v-4c0-0.5-0.2-1-0.6-1.4c-0.4-0.4-0.9-0.6-1.4-0.6H9.1
		c-0.5,0-1,0.2-1.4,0.6C7.3,14,7,14.5,7,15v4h-3v0h0L3.9,5.7l6-2.2c0,0,0.1,0,0.1-0.1L11,3l1.1,0.4c0,0,0,0,0,0l6,2.2L17.8,19z"/>
	<path class="st0" d="M14,7.2h-2v-2c0-0.3-0.1-0.5-0.3-0.7c-0.2-0.2-0.4-0.3-0.7-0.3c-0.3,0-0.5,0.1-0.7,0.3C10.1,4.7,10,5,10,5.2v2
		H8c-0.3,0-0.5,0.1-0.7,0.3C7.1,7.7,7,8,7,8.2S7.1,8.8,7.3,9C7.5,9.1,7.7,9.3,8,9.3h2v2c0,0.3,0.1,0.5,0.3,0.7
		c0.2,0.2,0.4,0.3,0.7,0.3c0.3,0,0.5-0.1,0.7-0.3c0.2-0.2,0.3-0.4,0.3-0.7v-2h2c0.3,0,0.5-0.1,0.7-0.3C14.9,8.8,15,8.5,15,8.2
		s-0.1-0.5-0.3-0.7C14.5,7.4,14.3,7.2,14,7.2z"/>
</g>
</svg>
