<?xml version="1.0" encoding="utf-8"?>
<!-- Generator: Adobe Illustrator 23.1.0, SVG Export Plug-In . SVG Version: 6.00 Build 0)  -->
<svg version="1.1" id="Layer_1" xmlns="http://www.w3.org/2000/svg" xmlns:xlink="http://www.w3.org/1999/xlink" x="0px" y="0px"
	 viewBox="0 0 22 22" style="enable-background:new 0 0 22 22;" xml:space="preserve">
<style type="text/css">
	.st0{fill:#FFFFFF;}
</style>
<g>
	<path class="st0" d="M20.5,4.1l-2.8-2.8c-0.4-0.4-1-0.4-1.4,0L1.5,15.9c-0.4,0.4-0.4,1,0,1.4l2.8,2.8c0.2,0.2,0.5,0.3,0.7,0.3
		c0.3,0,0.5-0.1,0.7-0.3L20.5,5.5C20.9,5.1,20.9,4.5,20.5,4.1z M5,18l-1.4-1.4l10-9.8L15,8.2L5,18z M16.4,6.8L15,5.4l2-2l1.4,1.4
		L16.4,6.8z"/>
	<path class="st0" d="M17,17.1h-1v-1c0-0.5-0.4-1-1-1s-1,0.4-1,1v1h-1c-0.6,0-1,0.4-1,1s0.4,1,1,1h1v1c0,0.5,0.4,1,1,1s1-0.4,1-1v-1
		h1c0.6,0,1-0.4,1-1S17.6,17.1,17,17.1z"/>
	<path class="st0" d="M2,9.2h1v1c0,0.5,0.4,1,1,1s1-0.4,1-1v-1h1c0.6,0,1-0.4,1-1s-0.4-1-1-1H5v-1c0-0.5-0.4-1-1-1s-1,0.4-1,1v1H2
		c-0.6,0-1,0.4-1,1S1.4,9.2,2,9.2z"/>
	<path class="st0" d="M18,12.2h-2v2h2V12.2z"/>
	<path class="st0" d="M12,1.3h-2v2h2V1.3z"/>
	<path class="st0" d="M9,3.3H7v2h2V3.3z"/>
	<path class="st0" d="M6,1.3H4v2h2V1.3z"/>
	<path class="st0" d="M21,9.2h-2v2h2V9.2z"/>
	<path class="st0" d="M21,14.1h-2v2h2V14.1z"/>
</g>
</svg>
