<?xml version="1.0" encoding="utf-8"?>
<!-- Generator: Adobe Illustrator 23.1.0, SVG Export Plug-In . SVG Version: 6.00 Build 0)  -->
<svg version="1.1" id="Layer_1" xmlns="http://www.w3.org/2000/svg" xmlns:xlink="http://www.w3.org/1999/xlink" x="0px" y="0px"
	 viewBox="0 0 22 22" style="enable-background:new 0 0 22 22;" xml:space="preserve">
<style type="text/css">
	.st0{fill:#FFFFFF;}
</style>
<path class="st0" d="M19,13H9V3c0-1.1-0.9-2-2-2H3C1.9,1,1,1.9,1,3v17c0,0.6,0.4,1,1,1h17c1.1,0,2-0.9,2-2v-4C21,13.9,20.1,13,19,13
	z M19,19H3V3h4v1H5C4.4,4,4,4.4,4,5s0.4,1,1,1h2v1H5C4.4,7,4,7.4,4,8s0.4,1,1,1h2v1H5c-0.6,0-1,0.4-1,1s0.4,1,1,1h2c0,0,0,1.7,0,2
	c0,0.6,0.4,1,1,1h2v2c0,0.6,0.4,1,1,1s1-0.4,1-1v-2h1v2c0,0.6,0.4,1,1,1s1-0.4,1-1v-2h1v2c0,0.6,0.4,1,1,1s1-0.4,1-1v-2h1V19z"/>
</svg>
