<?xml version="1.0" encoding="utf-8"?>
<svg version="1.1" xmlns:xlink="http://www.w3.org/1999/xlink" width="10px" height="15px" xmlns="http://www.w3.org/2000/svg">
  <g transform="matrix(1 0 0 1 -669 -276 )">
    <path d="M 10 7.5  C 10 7.66129032258065  9.93886743886744 7.80086848635236  9.81660231660232 7.91873449131514  L 2.65444015444015 14.8232009925558  C 2.53217503217503 14.9410669975186  2.38738738738739 15  2.22007722007722 15  C 2.05276705276705 15  1.90797940797941 14.9410669975186  1.78571428571429 14.8232009925558  L 0.183397683397683 13.2785359801489  C 0.0611325611325612 13.1606699751861  0 13.0210918114144  0 12.8598014888337  C 0 12.6985111662531  0.0611325611325612 12.5589330024814  0.183397683397683 12.4410669975186  L 5.30888030888031 7.5  L 0.183397683397683 2.55893300248139  C 0.0611325611325612 2.44106699751861  0 2.3014888337469  0 2.14019851116625  C 0 1.97890818858561  0.0611325611325612 1.83933002481389  0.183397683397683 1.72146401985112  L 1.78571428571429 0.176799007444168  C 1.90797940797941 0.0589330024813889  2.05276705276705 0  2.22007722007722 0  C 2.38738738738739 0  2.53217503217503 0.0589330024813889  2.65444015444015 0.176799007444168  L 9.81660231660232 7.08126550868486  C 9.93886743886744 7.19913151364764  10 7.33870967741935  10 7.5  Z " fill-rule="nonzero" fill="#757a88" stroke="none" transform="matrix(1 0 0 1 669 276 )" />
  </g>
</svg>