<?xml version="1.0" encoding="utf-8"?>
<svg version="1.1" xmlns:xlink="http://www.w3.org/1999/xlink" width="42px" height="42px" xmlns="http://www.w3.org/2000/svg">
  <g transform="matrix(1 0 0 1 -164 -262 )">
    <path d="M 34.6171875 17.80078125  C 34.9453125 17.47265625  35.109375 17.0625  35.109375 16.5703125  C 35.109375 16.0598958333333  34.9453125 15.640625  34.6171875 15.3125  L 32.12890625 12.8515625  C 31.7825520833333 12.5052083333333  31.3723958333333 12.33203125  30.8984375 12.33203125  C 30.4244791666667 12.33203125  30.0143229166667 12.5052083333333  29.66796875 12.8515625  L 18.51171875 23.98046875  L 12.33203125 17.80078125  C 11.9856770833333 17.4544270833333  11.5755208333333 17.28125  11.1015625 17.28125  C 10.6276041666667 17.28125  10.2174479166667 17.4544270833333  9.87109375 17.80078125  L 7.3828125 20.26171875  C 7.0546875 20.58984375  6.890625 21.0091145833333  6.890625 21.51953125  C 6.890625 22.01171875  7.0546875 22.421875  7.3828125 22.75  L 17.28125 32.6484375  C 17.6276041666667 32.9947916666667  18.0377604166667 33.16796875  18.51171875 33.16796875  C 19.00390625 33.16796875  19.4231770833333 32.9947916666667  19.76953125 32.6484375  L 34.6171875 17.80078125  Z M 39.18359375 10.458984375  C 41.0611979166667 13.6764322916667  42 17.1901041666667  42 21  C 42 24.8098958333333  41.0611979166667 28.3235677083333  39.18359375 31.541015625  C 37.3059895833333 34.7584635416667  34.7584635416667 37.3059895833333  31.541015625 39.18359375  C 28.3235677083333 41.0611979166667  24.8098958333333 42  21 42  C 17.1901041666667 42  13.6764322916667 41.0611979166667  10.458984375 39.18359375  C 7.24153645833333 37.3059895833333  4.69401041666667 34.7584635416667  2.81640625 31.541015625  C 0.938802083333333 28.3235677083333  0 24.8098958333333  0 21  C 0 17.1901041666667  0.938802083333333 13.6764322916667  2.81640625 10.458984375  C 4.69401041666667 7.24153645833333  7.24153645833333 4.69401041666666  10.458984375 2.81640625  C 13.6764322916667 0.93880208333333  17.1901041666667 0  21 0  C 24.8098958333333 0  28.3235677083333 0.93880208333333  31.541015625 2.81640625  C 34.7584635416667 4.69401041666666  37.3059895833333 7.24153645833333  39.18359375 10.458984375  Z " fill-rule="nonzero" fill="#026000" stroke="none" fill-opacity="0.501960784313725" transform="matrix(1 0 0 1 164 262 )" />
  </g>
</svg>